<?xml version="1.0" standalone="no"?>
<!DOCTYPE svg PUBLIC "-//W3C//DTD SVG 20010904//EN"
 "http://www.w3.org/TR/2001/REC-SVG-20010904/DTD/svg10.dtd">
<svg version="1.0" xmlns="http://www.w3.org/2000/svg"
 width="314.000000pt" height="314.000000pt" viewBox="0 0 314.000000 314.000000"
 preserveAspectRatio="xMidYMid meet">
<metadata>
Created by potrace 1.11, written by Peter Selinger 2001-2013
</metadata>
<g transform="translate(0.000000,314.000000) scale(0.100000,-0.100000)"
fill="#000000" stroke="none">
<path d="M1588 3095 c-2 -1 -57 -5 -123 -8 -66 -3 -133 -9 -150 -12 -201 -38
-378 -101 -540 -192 -27 -15 -51 -31 -53 -35 -2 -5 -9 -8 -16 -8 -7 0 -21 -8
-32 -17 -10 -10 -46 -38 -79 -62 -80 -60 -217 -199 -286 -291 -131 -175 -245
-428 -275 -610 -2 -14 -6 -34 -9 -45 -2 -11 -7 -49 -11 -85 -62 -572 205
-1124 699 -1445 258 -167 582 -257 897 -249 628 17 1184 397 1415 969 37 93
82 256 91 335 3 30 8 58 10 62 6 10 6 299 0 328 -3 14 -7 41 -10 60 -9 69 -36
176 -64 260 -196 574 -721 980 -1337 1036 -116 11 -125 11 -127 9z m319 -707
c13 -14 17 -38 19 -110 1 -51 2 -98 3 -104 1 -8 73 -11 246 -10 256 1 283 -4
208 -38 -34 -14 -116 -16 -818 -18 -429 -1 -792 -6 -807 -10 -14 -5 -30 -17
-33 -26 -4 -9 -6 -118 -5 -242 2 -202 2 -523 1 -542 -2 -16 -41 -7 -54 12 -12
17 -15 89 -15 411 0 215 3 401 8 414 5 13 19 27 32 31 13 4 119 7 236 7 151
-1 212 3 213 11 1 6 2 52 3 101 2 96 7 112 37 123 10 4 174 7 363 7 313 0 347
-2 363 -17z m401 -362 c8 -5 -3 -29 -36 -77 -26 -38 -47 -75 -48 -82 -1 -19
27 -47 47 -47 16 0 17 -26 17 -410 0 -225 -1 -410 -2 -410 0 0 -30 9 -64 20
-96 30 -139 37 -262 40 l-65 2 0 385 0 385 -28 24 c-16 13 -39 24 -53 24 -25
0 -27 4 -24 60 4 93 14 96 287 95 121 -1 224 -5 231 -9z m107 -86 c26 -39 45
-74 41 -77 -4 -4 -20 1 -36 11 l-30 17 0 -58 c-1 -32 -1 -271 -1 -530 0 -541
9 -501 -95 -438 -112 68 -217 95 -344 90 -101 -4 -187 -27 -294 -81 -88 -44
-166 -59 -181 -34 -7 12 -113 62 -167 79 -72 23 -95 26 -223 26 -153 0 -210
-14 -303 -75 -69 -44 -84 -49 -75 -22 65 186 455 222 770 70 l61 -29 51 26
c64 32 216 83 273 92 68 10 182 7 247 -7 34 -7 98 -33 146 -60 l85 -48 0 494
c0 272 -3 494 -6 494 -3 0 -15 -5 -26 -11 -40 -22 -37 7 7 74 25 37 47 67 48
67 2 0 25 -32 52 -70z m-627 -99 c13 -1 34 -12 47 -26 l25 -24 0 -368 0 -369
-28 -2 c-35 -3 -179 -45 -250 -73 l-52 -22 -63 28 c-34 16 -64 32 -67 36 -3 4
-5 127 -5 274 0 252 -1 267 -20 290 -11 14 -31 26 -45 27 -36 4 -40 15 -39 93
2 95 18 123 78 135 20 4 288 4 419 1z m-480 -255 c44 -15 50 -52 49 -313 0
-134 -3 -243 -6 -243 -3 0 -24 5 -46 9 -145 33 -297 30 -447 -8 l-68 -17 0
261 c0 277 3 296 51 313 25 10 438 8 467 -2z"/>
<path d="M1251 2338 c-29 -10 -38 -35 -40 -109 l-2 -66 323 1 323 1 -1 50 c-2
98 -4 104 -26 117 -25 13 -542 19 -577 6z"/>
</g>
</svg>
